<svg xmlns="http://www.w3.org/2000/svg" viewBox="0 0 773.14 97.6"><defs><style>.cls-1{fill:#fff;}</style></defs><title>hashtrack-logo-white</title><g id="Layer_2" data-name="Layer 2"><g id="Layer_1-2" data-name="Layer 1"><path class="cls-1" d="M194.11,93.26h-7.27V52.32H138V93.26h-7.21V7.86H138V46.22h48.8V7.86h7.27Z"/><path class="cls-1" d="M263.24,93.26a33.19,33.19,0,0,1-1.35-8.86,24.48,24.48,0,0,1-9.41,7.42,28.84,28.84,0,0,1-12.11,2.61q-9.15,0-14.81-5.1a16.62,16.62,0,0,1-5.66-12.9,17,17,0,0,1,7.71-14.66q7.71-5.4,21.5-5.4h12.73V49.15q0-6.8-4.19-10.7t-12.23-3.9a19.14,19.14,0,0,0-12.14,3.75q-4.81,3.75-4.81,9l-7-.06q0-7.57,7-13.11t17.3-5.54q10.62,0,16.75,5.31t6.31,14.81v30q0,9.21,1.94,13.78v.7Zm-22.05-5a23.56,23.56,0,0,0,12.58-3.4,20,20,0,0,0,8.07-9.09v-14H249.28q-10.5.12-16.42,3.84t-5.92,10.24a11.35,11.35,0,0,0,4,8.86A14.92,14.92,0,0,0,241.18,88.22Z"/><path class="cls-1" d="M334.54,77.13a10,10,0,0,0-4.19-8.39q-4.19-3.17-12.64-5a57,57,0,0,1-13.11-4.11A17.46,17.46,0,0,1,297.67,54a14.12,14.12,0,0,1-2.26-8.09,15.1,15.1,0,0,1,6.28-12.41q6.28-4.9,16.07-4.9,10.62,0,17,5.25a16.85,16.85,0,0,1,6.42,13.7h-7a11.37,11.37,0,0,0-4.66-9.27,18.35,18.35,0,0,0-11.76-3.7q-6.92,0-11.12,3.08a9.5,9.5,0,0,0-4.19,8,8.65,8.65,0,0,0,3.49,7.36q3.49,2.61,12.73,4.78t13.84,4.63a17.93,17.93,0,0,1,6.83,5.92,15.16,15.16,0,0,1,2.23,8.39,15.2,15.2,0,0,1-6.48,12.85q-6.48,4.81-16.92,4.81-11.09,0-18-5.37T293.3,75.49h7a12.2,12.2,0,0,0,5.19,9.59q4.78,3.43,12.64,3.43,7.33,0,11.85-3.23A9.68,9.68,0,0,0,334.54,77.13Z"/><path class="cls-1" d="M373.35,40.53a24.79,24.79,0,0,1,8.86-8.8A23.21,23.21,0,0,1,394,28.62q10.21,0,15.19,5.75t5,17.24V93.26h-7V51.56q-.06-8.5-3.61-12.67t-11.35-4.16a17.75,17.75,0,0,0-11.53,4.08,23.89,23.89,0,0,0-7.42,11V93.26h-7V3.17h7Z"/><path class="cls-1" d="M504.07,22.11H477.9V93.26h-17.6V22.11H434.5V7.86h69.57Z"/><path class="cls-1" d="M553.84,45.69a46.05,46.05,0,0,0-6.1-.47q-9.62,0-12.61,6.51V93.26h-17V29.8h16l.47,7.57q5.1-8.74,14.14-8.74a17.79,17.79,0,0,1,5.28.76Z"/><path class="cls-1" d="M606,93.26a18.82,18.82,0,0,1-1.7-5.69,20.51,20.51,0,0,1-16,6.86q-9.33,0-15.46-5.4a17.36,17.36,0,0,1-6.13-13.61q0-10.09,7.48-15.49t21.61-5.45h7.8V50.85a10.46,10.46,0,0,0-2.26-7q-2.26-2.64-7.13-2.64a10.1,10.1,0,0,0-6.72,2.05,7,7,0,0,0-2.43,5.63h-17a17,17,0,0,1,3.4-10.21,22.49,22.49,0,0,1,9.62-7.36,35.06,35.06,0,0,1,14-2.67q11.73,0,18.62,5.89t6.89,16.57V78.6q.06,9,2.52,13.67v1ZM592,81.47a14.6,14.6,0,0,0,6.92-1.67,11,11,0,0,0,4.69-4.49V64.4h-6.33q-12.73,0-13.55,8.8l-.06,1a6.79,6.79,0,0,0,2.23,5.22A8.66,8.66,0,0,0,592,81.47Z"/><path class="cls-1" d="M669.05,80.77a11.12,11.12,0,0,0,7.63-2.58,9,9,0,0,0,3.05-6.86h15.9a21.74,21.74,0,0,1-3.52,11.82,23.22,23.22,0,0,1-9.47,8.33,29.65,29.65,0,0,1-13.29,3q-13.61,0-21.47-8.65T640,61.88V60.77q0-14.66,7.8-23.4t21.41-8.74q11.91,0,19.09,6.77t7.3,18h-15.9a11.65,11.65,0,0,0-3.05-8,10.17,10.17,0,0,0-7.74-3.1q-5.92,0-8.94,4.32t-3,14v1.76q0,9.81,3,14.1T669.05,80.77Z"/><path class="cls-1" d="M737.36,67.81l-6.1,6.1V93.26h-17V3.17h17V53.08l3.28-4.22L750.79,29.8h20.35L748.21,56.25l24.93,37H753.67Z"/><path class="cls-1" d="M83.29,14.31A47,47,0,0,1,97.6,48.8,47,47,0,0,1,83.29,83.29,47,47,0,0,1,48.8,97.6,47,47,0,0,1,14.31,83.29,47,47,0,0,1,0,48.8,47,47,0,0,1,14.31,14.31l2.82,2.82A43.17,43.17,0,0,0,4,48.8,43.25,43.25,0,0,0,17,80.59a43.25,43.25,0,0,0,31.79,13,43.25,43.25,0,0,0,31.79-13,43.25,43.25,0,0,0,13-31.79A43.62,43.62,0,0,0,81.77,18.3,43.11,43.11,0,0,0,52.56,4V26.28H48.8V0A47,47,0,0,1,83.29,14.31ZM44.34,52.56l-.23-.47q-1.41-1.64-3.52-4.58t-6.57-9q-4.46-6.1-7.39-10.21t-2.7-4.34q.23-.23,7.39,4.81T45.52,38.95l6.8,4.93.23.23c0,.32.08.47.23.47a5.85,5.85,0,0,1,1.88,4.22,6,6,0,0,1-5.87,5.87A5.34,5.34,0,0,1,44.34,52.56Z"/></g></g></svg>